<svg width="32" height="32" viewBox="0 0 32 32" fill="none" xmlns="http://www.w3.org/2000/svg">
  <rect width="32" height="32" rx="8" fill="#F59E0B"/>
  <path d="M16 8C19.866 8 23 11.134 23 15C23 18.866 19.866 22 16 22C12.134 22 9 18.866 9 15C9 11.134 12.134 8 16 8ZM16 10C13.239 10 11 12.239 11 15C11 17.761 13.239 20 16 20C18.761 20 21 17.761 21 15C21 12.239 18.761 10 16 10Z" fill="white"/>
  <path d="M16 12C17.657 12 19 13.343 19 15C19 16.657 17.657 18 16 18C14.343 18 13 16.657 13 15C13 13.343 14.343 12 16 12Z" fill="white"/>
  <text x="16" y="20" font-family="Arial, sans-serif" font-size="8" font-weight="bold" text-anchor="middle" fill="white">₿</text>
</svg>